<?xml version="1.0" standalone="no"?>
<!DOCTYPE svg PUBLIC "-//W3C//DTD SVG 20010904//EN"
 "http://www.w3.org/TR/2001/REC-SVG-20010904/DTD/svg10.dtd">
<svg version="1.0" xmlns="http://www.w3.org/2000/svg"
 width="282.000000pt" height="282.000000pt" viewBox="0 0 282.000000 282.000000"
 preserveAspectRatio="xMidYMid meet">
<metadata>
Created by potrace 1.14, written by Peter Selinger 2001-2017
</metadata>
<g transform="translate(0.000000,282.000000) scale(0.100000,-0.100000)"
fill="#000000" stroke="none">
<path d="M1235 2652 c-2 -2 -16 -4 -32 -6 -15 -1 -33 -4 -38 -8 -6 -3 -18 -4
-27 -3 -10 2 -18 0 -18 -4 0 -4 -10 -8 -22 -8 -30 -2 -50 -7 -65 -16 -7 -5
-17 -5 -23 -2 -5 3 -10 1 -10 -4 0 -6 -3 -10 -7 -9 -14 3 -93 -25 -93 -33 0
-5 -7 -6 -15 -3 -8 4 -15 1 -15 -6 0 -6 -4 -9 -9 -5 -5 3 -15 -1 -23 -8 -7 -7
-16 -14 -21 -15 -15 -3 -73 -35 -89 -50 -10 -8 -18 -11 -18 -7 0 5 -9 -1 -20
-13 -12 -12 -25 -22 -30 -22 -5 0 -20 -11 -34 -25 -14 -14 -27 -24 -29 -23 -4
5 -33 -21 -108 -97 -102 -102 -109 -110 -109 -117 0 -4 -12 -20 -27 -37 -16
-16 -39 -52 -53 -78 -14 -26 -28 -50 -32 -53 -9 -7 -71 -144 -93 -206 -27 -76
-23 -80 85 -79 71 0 95 4 101 15 5 8 25 51 45 95 39 85 113 205 126 205 4 0 8
5 8 11 0 7 11 22 25 35 14 13 25 26 25 29 0 10 57 65 68 65 5 0 18 11 28 25
10 14 24 25 31 25 7 0 13 4 13 9 0 7 107 84 120 86 3 1 25 12 50 25 25 13 48
23 53 22 4 -1 7 3 7 9 0 5 4 8 9 4 5 -3 12 -1 16 5 4 6 11 8 16 5 5 -4 9 -1 9
6 0 7 3 10 6 6 4 -3 18 0 33 7 14 7 34 12 44 11 9 -2 17 1 17 7 0 5 6 8 13 5
6 -2 26 1 42 8 17 6 41 11 55 10 14 -2 30 0 35 4 6 3 60 6 120 7 115 1 145 7
145 30 0 7 11 21 25 30 14 9 25 20 25 26 0 5 5 14 10 21 57 67 61 76 33 75
-10 0 -31 3 -48 7 -29 7 -323 13 -330 7z"/>
<path d="M1752 2583 c-30 -38 -63 -80 -75 -96 -12 -15 -37 -44 -54 -65 -18
-20 -33 -40 -33 -44 0 -4 -11 -18 -25 -32 -14 -14 -25 -28 -25 -31 0 -3 -8
-14 -17 -24 -21 -23 -29 -32 -68 -86 -17 -22 -32 -42 -35 -45 -3 -3 -21 -25
-40 -50 -19 -25 -39 -51 -45 -57 -5 -7 -19 -24 -30 -38 -11 -15 -32 -41 -47
-58 -15 -18 -28 -35 -28 -39 0 -4 -10 -17 -22 -30 -13 -13 -32 -36 -43 -52
-11 -16 -28 -36 -37 -45 -10 -8 -18 -21 -18 -27 0 -7 -7 -14 -15 -18 -32 -12
-16 -32 25 -31 38 1 80 29 80 54 0 6 6 14 13 18 6 4 24 24 39 45 15 20 33 42
40 50 7 7 29 34 48 58 19 25 38 47 42 48 4 2 8 10 8 18 0 8 4 14 8 14 4 0 15
12 25 28 9 15 29 41 44 59 15 17 37 43 47 58 11 14 27 35 36 45 9 10 25 31 36
46 10 14 29 38 42 52 12 14 22 28 22 32 0 4 7 11 16 14 13 5 15 1 11 -16 -7
-33 -51 -245 -92 -442 -19 -93 -32 -172 -29 -175 3 -3 18 -6 34 -6 29 -1 30 1
45 75 9 41 20 93 25 115 6 22 19 87 31 145 62 304 117 564 124 583 14 36 -12
15 -63 -50z"/>
<path d="M1895 2449 l-19 -101 24 -18 c14 -10 28 -16 32 -14 4 3 8 1 8 -4 0
-5 16 -17 35 -28 19 -10 35 -23 35 -28 0 -5 3 -7 6 -3 4 3 12 1 19 -6 28 -27
65 -57 65 -52 0 3 20 -16 45 -42 24 -27 53 -57 63 -68 58 -61 141 -202 196
-330 l17 -40 100 0 101 0 -5 30 c-8 53 -87 237 -113 263 -8 7 -14 17 -14 22 0
13 -72 120 -81 120 -5 0 -9 5 -9 11 0 17 -123 147 -189 199 -17 14 -43 35 -58
48 -16 12 -36 25 -45 28 -10 3 -18 10 -18 15 0 5 -6 9 -14 9 -7 0 -19 7 -26
15 -7 8 -16 13 -20 10 -4 -3 -11 2 -14 11 -3 8 -10 12 -16 9 -5 -3 -10 -1 -10
5 0 6 -4 8 -10 5 -5 -3 -10 -1 -10 4 0 6 -9 11 -20 11 -11 0 -20 5 -20 10 0 6
-3 10 -8 10 -4 0 -16 -45 -27 -101z"/>
<path d="M1500 1513 c-8 -3 -22 -7 -30 -10 -8 -4 -18 -7 -22 -7 -17 -2 -37
-44 -38 -76 0 -27 7 -41 30 -60 17 -14 35 -26 40 -26 6 -1 12 -3 15 -4 3 -1
17 -3 33 -4 31 -1 52 -13 52 -27 0 -6 -4 -8 -9 -4 -5 3 -12 1 -15 -4 -8 -12
-58 -3 -68 12 -4 7 -8 8 -8 4 0 -5 -8 -1 -17 9 -16 16 -18 15 -29 -17 -6 -19
-9 -40 -6 -47 5 -14 62 -47 62 -36 0 4 6 1 13 -5 8 -6 16 -9 18 -7 2 2 20 6
41 9 51 7 90 45 90 90 0 33 -23 82 -40 82 -4 1 -16 6 -28 12 -11 6 -32 10 -46
9 -40 -5 -57 10 -33 28 11 8 24 11 30 8 5 -4 16 -7 23 -8 8 -2 22 -10 31 -18
24 -22 27 -21 41 13 10 25 9 33 -6 56 -9 14 -23 24 -30 21 -8 -3 -14 -2 -14 2
0 9 -56 12 -80 5z"/>
<path d="M264 1495 c-3 -6 -3 -72 -2 -146 l3 -134 105 -1 c58 0 111 2 118 4 6
2 12 18 12 36 l0 32 -67 1 c-38 1 -74 2 -80 2 -10 1 -13 30 -13 109 l0 108
-36 0 c-20 0 -38 -5 -40 -11z"/>
<path d="M592 1360 l3 -145 28 1 c15 1 32 2 37 3 6 1 10 56 10 145 l0 143 -40
-1 -41 -1 3 -145z"/>
<path d="M772 1360 l3 -145 28 1 c15 1 32 2 37 3 6 0 10 28 10 61 0 33 4 60
10 60 6 0 10 -5 10 -10 0 -10 37 -68 51 -80 3 -3 8 -12 11 -20 4 -10 18 -16
39 -15 l34 1 3 145 3 145 -41 0 -40 0 0 -58 c0 -32 -4 -58 -10 -58 -5 0 -10 5
-10 10 0 11 -35 63 -59 90 -8 8 -30 15 -48 15 l-34 1 3 -146z"/>
<path d="M1094 1499 c-6 -10 4 -271 11 -277 3 -4 22 -7 41 -7 34 -1 34 -1 34
41 l0 43 30 -29 c17 -16 30 -34 30 -40 0 -12 1 -12 58 -14 53 -2 61 8 30 37
-12 12 -40 43 -61 68 l-38 47 38 38 c21 22 48 53 60 69 l21 31 -48 -1 c-50 0
-64 -9 -103 -65 l-17 -24 0 45 0 45 -41 -1 c-22 0 -43 -3 -45 -6z"/>
<path d="M1732 1361 l3 -145 35 -1 35 0 3 145 3 146 -41 0 -41 0 3 -145z"/>
<path d="M1902 1360 l3 -145 80 0 c85 -1 129 10 156 36 48 47 50 171 3 218
-14 14 -30 27 -35 27 -5 1 -10 3 -11 4 -2 1 -47 3 -101 4 l-98 2 3 -146z m146
71 c1 -1 4 0 6 2 13 8 46 -40 46 -68 0 -48 -19 -67 -73 -70 l-47 -4 0 73 0 72
33 -2 c17 -1 33 -2 35 -3z"/>
<path d="M2260 1360 l0 -145 120 0 120 0 0 36 0 36 -71 -1 c-38 -1 -75 1 -81
5 -23 15 4 25 61 23 l61 -2 0 37 0 37 -62 0 c-61 -1 -63 0 -63 24 0 25 1 25
78 25 l78 -1 -3 36 -3 35 -117 0 -118 0 0 -145z"/>
<path d="M165 1031 c-3 -2 -5 -12 -5 -22 0 -26 82 -218 116 -269 43 -67 52
-83 63 -108 6 -12 18 -25 26 -28 8 -4 15 -10 15 -15 0 -12 8 -21 96 -114 39
-41 74 -75 78 -75 4 0 18 -10 31 -22 44 -42 106 -84 118 -80 4 1 7 -1 7 -6 0
-4 21 -19 48 -32 26 -14 50 -29 54 -35 5 -7 8 -7 8 0 0 6 4 3 10 -5 13 -22 29
23 56 165 5 28 3 32 -35 50 -22 11 -41 23 -41 28 0 4 -7 7 -15 7 -8 0 -15 5
-15 10 0 6 -5 10 -12 10 -6 0 -18 7 -27 15 -9 8 -29 26 -46 41 -64 55 -125
114 -125 121 0 3 -7 13 -15 22 -28 28 -102 137 -109 159 -4 12 -11 22 -16 22
-4 0 -10 10 -13 23 -3 12 -16 49 -30 82 l-26 59 -96 1 c-52 1 -98 -1 -100 -4z"/>
<path d="M1135 957 c-20 -98 -30 -141 -49 -227 -72 -326 -91 -410 -112 -510
-13 -63 -24 -117 -24 -120 0 -8 80 82 80 90 0 4 12 20 28 36 15 16 40 47 57
69 39 53 47 63 65 83 8 10 26 33 40 52 13 19 31 42 40 50 9 8 27 31 40 50 14
19 32 42 40 52 8 9 24 28 35 43 11 14 27 34 36 45 8 10 24 31 35 46 10 15 27
35 37 46 9 10 17 20 17 23 0 3 10 17 23 30 21 22 33 37 80 99 12 17 29 37 37
46 15 16 50 66 50 73 0 2 -20 3 -45 2 -40 -1 -47 -5 -77 -44 -18 -24 -37 -51
-43 -59 -5 -8 -17 -23 -25 -32 -27 -30 -65 -77 -85 -106 -11 -15 -30 -39 -42
-53 -38 -44 -43 -50 -43 -56 0 -3 -8 -13 -17 -23 -19 -20 -26 -29 -83 -102
-19 -25 -47 -58 -62 -75 -15 -16 -28 -33 -28 -37 0 -4 -6 -13 -13 -20 -7 -7
-18 -22 -25 -33 -25 -44 -16 8 68 385 31 135 43 199 44 224 1 26 -3 30 -30 32
l-32 2 -17 -81z"/>
<path d="M2413 1020 c-17 -50 -84 -184 -118 -235 -51 -76 -55 -82 -82 -107
-13 -12 -23 -25 -23 -30 0 -5 -16 -23 -37 -41 -20 -18 -46 -41 -57 -52 -12
-11 -48 -38 -81 -60 -33 -22 -61 -43 -63 -47 -2 -5 -10 -8 -18 -8 -8 0 -14 -5
-14 -10 0 -6 -3 -9 -7 -8 -10 1 -75 -27 -86 -38 -4 -4 -17 -9 -29 -11 -12 -2
-25 -8 -29 -15 -4 -6 -12 -7 -18 -4 -6 4 -11 2 -11 -3 0 -6 -3 -10 -7 -10 -5
1 -10 0 -13 -1 -7 -2 -28 -7 -65 -13 -16 -3 -41 -9 -55 -14 -14 -6 -37 -9 -52
-8 -16 1 -28 -1 -28 -5 0 -3 -58 -6 -130 -5 -71 1 -130 -3 -130 -7 0 -4 -8
-16 -17 -26 -10 -10 -29 -33 -43 -51 -14 -18 -35 -44 -47 -58 -25 -29 -22 -44
7 -38 11 2 22 0 25 -5 3 -5 14 -7 25 -5 11 2 22 1 24 -3 7 -12 371 -3 371 8 0
2 14 4 30 5 17 2 30 4 30 5 0 1 13 4 30 6 16 3 35 9 41 15 6 5 13 6 17 3 3 -3
16 0 29 7 12 7 31 14 41 16 10 2 31 10 46 18 16 8 31 11 35 8 3 -4 6 -1 6 5 0
6 14 13 30 17 17 4 30 11 30 16 0 6 5 7 10 4 6 -3 10 -1 10 4 0 6 7 11 15 11
8 0 15 5 15 12 0 6 3 8 7 5 3 -4 21 4 39 18 18 14 36 25 41 25 4 0 20 11 35
25 15 14 29 25 32 25 13 0 161 142 209 201 46 57 116 166 152 238 42 84 88
208 82 224 -2 8 -35 12 -102 12 -78 0 -98 -3 -102 -15z"/>
</g>
</svg>
